<?xml version="1.0" encoding="utf-8"?>
<!-- Generator: Adobe Illustrator 16.0.0, SVG Export Plug-In . SVG Version: 6.00 Build 0)  -->
<!DOCTYPE svg PUBLIC "-//W3C//DTD SVG 1.1//EN" "http://www.w3.org/Graphics/SVG/1.1/DTD/svg11.dtd">
<svg version="1.1" id="Ebene_1" xmlns="http://www.w3.org/2000/svg" xmlns:xlink="http://www.w3.org/1999/xlink" x="0px" y="0px"
	 width="338.624px" height="145.133px" viewBox="0 0 338.624 145.133" enable-background="new 0 0 338.624 145.133"
	 xml:space="preserve">
<linearGradient id="SVGID_1_" gradientUnits="userSpaceOnUse" x1="228.8149" y1="87.9575" x2="290.6442" y2="26.1282">
	<stop  offset="0" style="stop-color:#FFFFFF"/>
	<stop  offset="0.0302" style="stop-color:#FEF9F9"/>
	<stop  offset="0.071" style="stop-color:#FCE8E9"/>
	<stop  offset="0.1179" style="stop-color:#F9CBCE"/>
	<stop  offset="0.1693" style="stop-color:#F5A4A9"/>
	<stop  offset="0.2245" style="stop-color:#EF7179"/>
	<stop  offset="0.2819" style="stop-color:#E93440"/>
	<stop  offset="0.3258" style="stop-color:#E3000F"/>
	<stop  offset="0.618" style="stop-color:#E3000F"/>
	<stop  offset="1" style="stop-color:#FFFFFF"/>
</linearGradient>
<path fill="url(#SVGID_1_)" d="M276.341,21.966c0,0,5.537-5.063,9.651-0.475c4.56,5.087,0.791,9.018,0.791,9.018
	s-27.212,22.466-43.824,62.019c0,0-1.424,2.848-6.645,1.424c-5.221-1.424-4.904-5.695-4.904-5.695S237.896,56.667,276.341,21.966z"
	/>
<linearGradient id="SVGID_2_" gradientUnits="userSpaceOnUse" x1="354.1641" y1="-3.1113" x2="415.9946" y2="-64.9419" gradientTransform="matrix(0.9908 -0.1351 0.1351 0.9908 -117.4521 169.2051)">
	<stop  offset="0" style="stop-color:#FFFFFF"/>
	<stop  offset="0.0302" style="stop-color:#F9FDFE"/>
	<stop  offset="0.071" style="stop-color:#E8F6FC"/>
	<stop  offset="0.1179" style="stop-color:#CBEBF9"/>
	<stop  offset="0.1693" style="stop-color:#A4DBF4"/>
	<stop  offset="0.2245" style="stop-color:#71C7ED"/>
	<stop  offset="0.2819" style="stop-color:#34AFE6"/>
	<stop  offset="0.3258" style="stop-color:#009ADF"/>
	<stop  offset="0.618" style="stop-color:#009ADF"/>
	<stop  offset="1" style="stop-color:#FFFFFF"/>
</linearGradient>
<path fill="url(#SVGID_2_)" d="M271.208,46.467c0,0,4.803-5.764,9.499-1.774c5.207,4.424,2.002,8.829,2.002,8.829
	s-23.928,25.936-35.044,67.37c0,0-1.026,3.014-6.392,2.309c-5.366-0.706-5.629-4.981-5.629-4.981S237.804,86.044,271.208,46.467z"/>
<linearGradient id="SVGID_3_" gradientUnits="userSpaceOnUse" x1="322.3936" y1="-10.957" x2="389.6339" y2="-78.1974" gradientTransform="matrix(0.9918 -0.128 0.128 0.9918 -111.8823 160.9609)">
	<stop  offset="0" style="stop-color:#FFFFFF"/>
	<stop  offset="0.0302" style="stop-color:#FFFEF9"/>
	<stop  offset="0.071" style="stop-color:#FFFDE8"/>
	<stop  offset="0.1179" style="stop-color:#FFFACB"/>
	<stop  offset="0.1693" style="stop-color:#FFF6A4"/>
	<stop  offset="0.2245" style="stop-color:#FFF171"/>
	<stop  offset="0.2819" style="stop-color:#FFEA34"/>
	<stop  offset="0.3258" style="stop-color:#FFE500"/>
	<stop  offset="0.618" style="stop-color:#FFE500"/>
	<stop  offset="1" style="stop-color:#FFFFFF"/>
</linearGradient>
<path fill="url(#SVGID_3_)" d="M248.905,30.354c0,0,4.843-5.73,9.51-1.707c5.175,4.462,1.894,9.562,1.894,9.562
	s-21.991,20.251-38.167,73.994c0,0-1.048,3.006-6.408,2.263c-5.361-0.744-5.594-5.02-5.594-5.02S215.219,69.692,248.905,30.354z"/>
<g>
	<path fill="#004E9E" stroke="#004E9E" stroke-width="0.6328" d="M23.469,108.84c0-3.782-0.055-7.563-0.165-11.345
		c-3.784,0-8.664,0.22-11.735,0.603c0.165-0.547,0.274-1.15,0.274-1.754c0-0.547-0.11-1.096-0.274-1.698
		c4.716,0.165,9.432,0.274,14.148,0.274c4.716,0,9.432-0.109,14.147-0.274c-0.165,0.603-0.274,1.151-0.274,1.753
		c0,0.548,0.11,1.151,0.274,1.699c-3.071-0.383-7.951-0.603-11.735-0.603c-0.11,3.782-0.165,7.563-0.165,11.345v9.426
		c0,4.713,0.219,9.481,0.438,14.194c-0.932-0.164-1.81-0.273-2.687-0.273c-0.877,0-1.755,0.109-2.687,0.273
		c0.219-4.713,0.438-9.48,0.438-14.194V108.84z"/>
	<path fill="#004E9E" stroke="#004E9E" stroke-width="0.6328" d="M45.568,106.757c0-5.042-0.11-12.112-0.439-15.784
		c0.823,0.164,1.645,0.274,2.468,0.274s1.645-0.11,2.468-0.274c-0.329,3.672-0.439,10.741-0.439,15.509v4.166h0.11
		c2.029-3.124,4.826-4.933,8.774-4.933c4.058,0,8.773,1.973,8.773,9.536c0,3.125-0.219,6.413-0.219,10.139
		c0,2.412,0,4.713,0.109,7.069c-0.822-0.164-1.535-0.273-2.303-0.273c-0.768,0-1.481,0.109-2.249,0.273
		c0.11-4,0.384-8.001,0.384-12.221v-3.343c0-5.371-2.357-8.33-5.977-8.33c-5.1,0-7.403,3.288-7.403,8.988
		c0,4.165,0.11,11.235,0.439,14.906c-0.823-0.164-1.645-0.273-2.468-0.273s-1.645,0.109-2.468,0.273
		c0.329-3.671,0.439-10.741,0.439-15.783V106.757z"/>
	<path fill="#004E9E" stroke="#004E9E" stroke-width="0.6328" d="M86.695,105.715c6.361,0,13.325,3.672,13.325,13.647
		c0,9.974-6.964,13.646-13.325,13.646s-13.325-3.671-13.325-13.646C73.37,109.388,80.334,105.715,86.695,105.715z M86.695,131.254
		c6.471,0,8.5-5.753,8.5-11.892s-2.029-11.893-8.5-11.893s-8.5,5.755-8.5,11.893S80.224,131.254,86.695,131.254z"/>
	<path fill="#004E9E" stroke="#004E9E" stroke-width="0.6328" d="M106.217,116.512c0-3.288-0.11-7.124-0.439-10.248
		c0.823,0.165,1.645,0.273,2.468,0.273c0.548,0,1.371-0.108,2.193-0.273c-0.11,1.479-0.165,2.905-0.165,4.384h0.11
		c1.974-3.344,4.661-4.933,8.17-4.933c3.729,0,7.184,2.302,7.951,5.426h0.11c1.754-3.508,4.935-5.426,8.773-5.426
		c4.771,0,8.39,2.466,8.39,8.66c0,2.521-0.329,5.645-0.329,12.112c0,1.973,0,3.671,0.164,5.973
		c-0.768-0.164-1.535-0.273-2.357-0.273c-0.823,0-1.646,0.109-2.413,0.273c0.219-2.027,0.548-7.508,0.548-17.318
		c0-3.671-1.426-6.576-5.703-6.576c-2.632,0-4.497,1.206-5.484,2.576c-1.151,1.644-1.316,2.192-1.316,12.605
		c0,3.178,0.109,5.315,0.274,8.713c-0.822-0.164-1.645-0.273-2.413-0.273c-0.768,0-1.59,0.109-2.413,0.273
		c0.329-4.109,0.493-8.439,0.493-12.44c0-6.795-0.055-7.234-0.987-8.933c-0.768-1.37-2.742-2.521-4.551-2.521
		c-4.716,0-7.019,3.288-7.019,8.988v4.658c0,3.289,0.11,7.125,0.438,10.248c-0.823-0.164-1.645-0.273-2.467-0.273
		c-0.823,0-1.645,0.109-2.468,0.273c0.329-3.123,0.439-6.959,0.439-10.248V116.512z"/>
	<path fill="#004E9E" stroke="#004E9E" stroke-width="0.6328" d="M152.333,108.895c3.29-2.466,5.922-3.179,8.828-3.179
		c5.264,0,8.883,3.233,8.883,8.111c0,4.11-0.219,8.166-0.219,12.77c0,1.808,0,4.055,2.138,4.055c0.329,0,0.768,0,1.152-0.219v1.206
		c-0.769,0.329-2.084,0.768-3.51,0.768c-2.358,0-3.564-1.535-3.784-3.398c-2.632,2.63-4.88,4-8.609,4
		c-3.674,0-7.293-2.576-7.293-6.741c0-4.385,2.961-6.741,7.732-7.508c7.951-1.26,8.226-1.699,8.226-3.836
		c0-3.671-1.645-6.905-6.032-6.905c-2.906,0-5.648,1.37-6.909,3.727h-0.603V108.895z M165.878,118.649
		c-3.784,1.261-11.461,0.877-11.461,6.852c0,3.452,2.358,5.206,4.771,5.206c2.796,0,5.209-1.809,6.47-3.837L165.878,118.649z"/>
	<path fill="#004E9E" stroke="#004E9E" stroke-width="0.6328" d="M178.929,127.199c0.768,1.48,3.125,3.781,6.196,3.781
		c2.742,0,5.319-1.699,5.319-4.932c0-6.795-12.941-2.794-12.941-12.057c0-4.768,3.291-8.276,9.103-8.276
		c2.687,0,4.386,0.987,6.086,1.535c-0.603,1.041-1.206,3.069-1.316,3.891h-0.657c-0.549-1.754-2.358-3.398-4.826-3.398
		c-2.138,0-4.661,1.37-4.661,4.603c0,7.125,12.942,2.74,12.942,12.002c0,4.165-3.784,8.659-9.871,8.659
		c-3.345,0-5.539-0.931-7.074-1.808c0.438-0.932,1.042-2.905,1.042-4.001H178.929z"/>
	<path fill="#004E9E" stroke="#004E9E" stroke-width="0.6328" d="M200.973,106.757c0-5.042-0.11-12.112-0.439-15.784
		c0.823,0.164,1.646,0.274,2.468,0.274c0.823,0,1.645-0.11,2.468-0.274c-0.33,3.672-0.439,10.741-0.439,15.509v4.166h0.109
		c2.029-3.124,4.826-4.933,8.774-4.933c4.058,0,8.774,1.973,8.774,9.536c0,3.125-0.219,6.413-0.219,10.139
		c0,2.412,0,4.713,0.109,7.069c-0.823-0.164-1.535-0.273-2.303-0.273c-0.768,0-1.481,0.109-2.249,0.273
		c0.109-4,0.384-8.001,0.384-12.221v-3.343c0-5.371-2.357-8.33-5.977-8.33c-5.1,0-7.403,3.288-7.403,8.988
		c0,4.165,0.109,11.235,0.439,14.906c-0.823-0.164-1.645-0.273-2.468-0.273c-0.822,0-1.645,0.109-2.468,0.273
		c0.329-3.671,0.439-10.741,0.439-15.783V106.757z"/>
	<path fill="#004E9E" stroke="#004E9E" stroke-width="0.6328" d="M234.478,93.933c1.535,0,2.796,1.26,2.796,2.795
		c0,1.534-1.262,2.794-2.796,2.794c-1.535,0-2.797-1.261-2.797-2.794C231.681,95.193,232.942,93.933,234.478,93.933z
		 M232.448,116.512c0-3.288-0.109-7.124-0.438-10.248c0.822,0.165,1.645,0.273,2.468,0.273c0.822,0,1.645-0.108,2.467-0.273
		c-0.329,3.124-0.438,6.96-0.438,10.248v5.7c0,3.289,0.109,7.125,0.438,10.248c-0.822-0.164-1.645-0.273-2.467-0.273
		c-0.823,0-1.646,0.109-2.468,0.273c0.329-3.123,0.438-6.959,0.438-10.248V116.512z"/>
	<path fill="#004E9E" stroke="#004E9E" stroke-width="0.6328" d="M247.693,106.757c0-5.042-0.109-12.112-0.439-15.784
		c0.823,0.164,1.645,0.274,2.468,0.274s1.645-0.11,2.468-0.274c-0.329,3.672-0.439,10.741-0.439,15.784v9.919
		c0,5.042,0.11,12.112,0.439,15.783c-0.823-0.164-1.645-0.273-2.468-0.273s-1.645,0.109-2.468,0.273
		c0.33-3.671,0.439-10.741,0.439-15.783V106.757z"/>
	<path fill="#004E9E" stroke="#004E9E" stroke-width="0.6328" d="M273.137,95.522c-0.877-0.547-1.919-0.822-3.016-0.822
		c-3.235,0-4.497,2.631-4.497,5.48c0,1.315,0.329,4.165,0.658,6.412c1.864,0,3.784-0.055,5.648-0.056
		c-0.055,0.385-0.11,0.768-0.11,1.097c0,0.384,0.055,0.768,0.11,1.096c-1.865-0.055-3.784-0.165-5.648-0.165
		c0,7.946,0,15.838,0.219,23.894c-0.768-0.164-1.59-0.273-2.357-0.273s-1.59,0.109-2.413,0.273
		c0.494-8.056,0.494-15.893,0.494-23.894c-1.316,0-2.633,0.109-3.948,0.165c0.055-0.329,0.109-0.712,0.109-1.096
		c0-0.329-0.055-0.712-0.109-1.096c1.315,0,2.687,0.055,3.948,0.055c0-4.275,1.864-10.357,4.771-13.262
		c1.316-1.316,3.51-2.521,5.594-2.521c0.329,0,0.768,0.055,1.096,0.165c-0.055,1.479-0.219,2.959-0.219,4.384L273.137,95.522z"/>
	<path fill="#004E9E" stroke="#004E9E" stroke-width="0.6328" d="M287.065,105.715c7.677,0,11.352,5.097,11.352,11.18
		c0,0.713-0.055,1.425-0.11,2.138c-3.948-0.055-7.842-0.164-11.735-0.164c-2.413,0-4.771,0.109-7.184,0.164
		c-0.055,0.548-0.055,1.041-0.055,1.534c0,5.7,3.4,10.139,9.487,10.139c2.907,0,6.306-1.699,8.225-3.891l0.274,0.165l-0.329,2.685
		c-2.194,1.753-5.758,3.343-9.158,3.343c-7.896,0-13.326-5.59-13.326-12.878C274.507,111.251,279.004,105.715,287.065,105.715z
		 M279.498,116.951c2.248,0.054,4.825,0.165,7.128,0.165c2.413,0,4.99-0.11,7.293-0.165c0-3.891-1.042-9.481-6.745-9.481
		C281.801,107.469,279.771,113.005,279.498,116.951z"/>
	<path fill="#004E9E" stroke="#004E9E" stroke-width="0.6328" d="M316.073,108.565c-5.1,0-7.403,3.288-7.403,8.988v4.658
		c0,3.289,0.11,7.125,0.439,10.248c-0.823-0.164-1.646-0.273-2.468-0.273c-0.823,0-1.646,0.109-2.468,0.273
		c0.329-3.123,0.438-6.959,0.438-10.248v-5.7c0-3.288-0.109-7.124-0.438-10.248c0.822,0.165,1.645,0.273,2.468,0.273
		c0.548,0,1.371-0.108,2.193-0.273c-0.109,1.479-0.165,2.905-0.165,4.384h0.11c2.029-3.124,4.826-4.933,8.774-4.933
		c4.058,0,8.773,1.973,8.773,9.536c0,3.125-0.219,6.413-0.219,10.139c0,2.412,0,4.713,0.109,7.069
		c-0.823-0.164-1.536-0.273-2.303-0.273c-0.768,0-1.481,0.109-2.249,0.273c0.11-4,0.384-8.001,0.384-12.221v-3.343
		C322.05,111.524,319.692,108.565,316.073,108.565z"/>
</g>
</svg>
